<svg width="45" height="45" viewBox="0 0 45 45" fill="none" xmlns="http://www.w3.org/2000/svg">
<path fill-rule="evenodd" clip-rule="evenodd" d="M35.1197 0.50673C35.4443 0.182271 35.8844 0 36.3433 0C36.8023 0 37.2424 0.182271 37.5669 0.50673L44.4898 7.4296C44.651 7.59037 44.7789 7.78135 44.8661 7.99162C44.9534 8.20188 44.9983 8.4273 44.9983 8.65495C44.9983 8.8826 44.9534 9.10801 44.8661 9.31827C44.7789 9.52854 44.651 9.71952 44.4898 9.88029L30.8448 23.5253C30.5818 23.7892 30.2779 24.009 29.9449 24.176L16.3518 30.9708C16.0272 31.1328 15.6598 31.1888 15.3017 31.1307C14.9436 31.0726 14.6127 30.9034 14.356 30.647C14.0992 30.3906 13.9296 30.0601 13.8709 29.702C13.8123 29.344 13.8676 28.9765 14.0292 28.6516L20.824 15.0551C20.9911 14.7221 21.2108 14.4182 21.4747 14.1552L35.1197 0.50673ZM36.3451 4.17931L23.9185 16.6059L20.329 23.7918L21.2082 24.671L28.3976 21.078L40.8207 8.65495L36.3451 4.17931ZM27.6915 3.46279L24.23 6.92423H10.0382C8.55667 6.92423 7.54593 6.92423 6.77057 6.99C6.00905 7.0523 5.62137 7.16307 5.35138 7.30152C4.7001 7.63338 4.17058 8.16289 3.83873 8.81417C3.70027 9.08416 3.58951 9.47184 3.5272 10.2334C3.46143 11.0087 3.46143 12.0195 3.46143 13.501V34.9618C3.46143 36.4433 3.46143 37.4541 3.5272 38.2294C3.58951 38.991 3.70027 39.3786 3.83873 39.6486C4.17058 40.2999 4.7001 40.8294 5.35138 41.1613C5.62137 41.2997 6.00905 41.4105 6.77057 41.4728C7.54939 41.5386 8.55667 41.5386 10.0382 41.5386H31.4991C32.9805 41.5386 33.9913 41.5386 34.7666 41.4728C35.5282 41.4105 35.9158 41.2997 36.1858 41.1613C36.8371 40.8294 37.3666 40.2999 37.6985 39.6486C37.8369 39.3786 37.9477 38.991 38.01 38.2294C38.0758 37.4506 38.0758 36.4433 38.0758 34.9618V20.77L41.5372 17.3085V35.0311C41.5372 36.426 41.5372 37.5752 41.4611 38.5133C41.3814 39.4859 41.2118 40.3824 40.7826 41.2201C40.1189 42.5227 39.0599 43.5817 37.7573 44.2454C36.9162 44.6746 36.0231 44.8442 35.0505 44.9238C34.1159 45 32.9632 45 31.5717 45H9.96893C8.57397 45 7.42478 45 6.48673 44.9238C5.51406 44.8442 4.61755 44.6746 3.77989 44.2454C2.47732 43.5817 1.4183 42.5227 0.754592 41.2201C0.325375 40.379 0.155765 39.4859 0.0761518 38.5133C2.57897e-07 37.5787 0 36.426 0 35.0311V13.4317C0 12.0368 2.57897e-07 10.8876 0.0761518 9.94952C0.155765 8.97686 0.325375 8.08035 0.754592 7.24268C1.4183 5.94012 2.47732 4.8811 3.77989 4.21739C4.62101 3.78817 5.51406 3.61856 6.48673 3.53895C7.42132 3.4628 8.57397 3.46279 9.96893 3.46279H27.6915Z" fill="#DFF1FC"/>
</svg>
