<svg width="29" height="45" viewBox="0 0 29 45" fill="none" xmlns="http://www.w3.org/2000/svg">
<path fill-rule="evenodd" clip-rule="evenodd" d="M6.2875 16.2162C5.46245 16.2162 4.64549 16.3787 3.88324 16.6944C3.121 17.0101 2.4284 17.4729 1.84501 18.0563C1.26161 18.6397 0.798836 19.3323 0.483104 20.0945C0.167373 20.8568 0.00486777 21.6737 0.00486777 22.4988C0.00486777 23.3238 0.167373 24.1408 0.483104 24.903C0.798836 25.6653 1.26161 26.3579 1.84501 26.9413C2.4284 27.5247 3.121 27.9875 3.88324 28.3032C4.64549 28.6189 5.46245 28.7814 6.2875 28.7814H12.5701V22.6253C12.5692 22.5409 12.5692 22.4566 12.5701 22.3723V16.2162H6.2875ZM12.5701 12.5677H6.2875C4.62092 12.5677 3.0226 11.9057 1.84415 10.7272C0.665697 9.54875 0.00365113 7.95043 0.00365113 6.28385C0.00365113 4.61727 0.665697 3.01895 1.84415 1.8405C3.0226 0.662046 4.62092 0 6.2875 0H12.5701V12.5677ZM16.2186 0V12.5677H22.5012C24.1464 12.5353 25.7133 11.8591 26.8653 10.6841C28.0173 9.50921 28.6626 7.92934 28.6626 6.28385C28.6626 4.63836 28.0173 3.05849 26.8653 1.88357C25.7133 0.70864 24.1464 0.0323689 22.5012 0H16.2186ZM22.5012 16.2137C20.8521 16.2135 19.269 16.8617 18.0936 18.0185C16.9182 19.1752 16.2448 20.7477 16.2186 22.3966V22.5985C16.2387 23.8365 16.6242 25.041 17.3267 26.0607C18.0292 27.0803 19.0173 27.8697 20.1669 28.3296C21.3165 28.7895 22.5764 28.8994 23.7883 28.6456C25.0002 28.3917 26.1101 27.7854 26.9786 26.9029C27.847 26.0203 28.4353 24.9008 28.6696 23.6849C28.9038 22.4691 28.7736 21.2112 28.2952 20.0691C27.8168 18.927 27.0117 17.9518 25.9808 17.2659C24.95 16.5799 23.7394 16.2139 22.5012 16.2137ZM6.2875 32.4299C5.04433 32.4294 3.82894 32.7976 2.79504 33.4879C1.76115 34.1782 0.955199 35.1597 0.479124 36.3081C0.00304922 37.4565 -0.121764 38.7203 0.120472 39.9396C0.362708 41.1589 0.96111 42.2791 1.84 43.1583C2.71888 44.0375 3.83877 44.6363 5.05802 44.8791C6.27727 45.1218 7.54111 44.9974 8.6897 44.5218C9.83828 44.0462 10.82 43.2406 11.5107 42.207C12.2015 41.1734 12.5701 39.9581 12.5701 38.7149V32.4299H6.2875Z" fill="#DFF1FC"/>
</svg>
