<svg width="40" height="40" viewBox="0 0 40 40" fill="none" xmlns="http://www.w3.org/2000/svg">
<path d="M20 3C17.7675 3 15.5569 3.43972 13.4944 4.29405C11.4318 5.14838 9.55778 6.40059 7.97918 7.97918C4.79107 11.1673 3 15.4913 3 20C3 27.514 7.879 33.889 14.628 36.15C15.478 36.286 15.75 35.759 15.75 35.3V32.427C11.041 33.447 10.038 30.149 10.038 30.149C9.256 28.177 8.151 27.65 8.151 27.65C6.604 26.596 8.27 26.63 8.27 26.63C9.97 26.749 10.871 28.381 10.871 28.381C12.35 30.965 14.849 30.2 15.818 29.792C15.971 28.687 16.413 27.939 16.889 27.514C13.115 27.089 9.154 25.627 9.154 19.15C9.154 17.263 9.8 15.75 10.905 14.543C10.735 14.118 10.14 12.35 11.075 10.055C11.075 10.055 12.503 9.596 15.75 11.789C17.093 11.415 18.555 11.228 20 11.228C21.445 11.228 22.907 11.415 24.25 11.789C27.497 9.596 28.925 10.055 28.925 10.055C29.86 12.35 29.265 14.118 29.095 14.543C30.2 15.75 30.846 17.263 30.846 19.15C30.846 25.644 26.868 27.072 23.077 27.497C23.689 28.024 24.25 29.061 24.25 30.642V35.3C24.25 35.759 24.522 36.303 25.389 36.15C32.138 33.872 37 27.514 37 20C37 17.7675 36.5603 15.5569 35.706 13.4944C34.8516 11.4318 33.5994 9.55778 32.0208 7.97918C30.4422 6.40059 28.5682 5.14838 26.5056 4.29405C24.4431 3.43972 22.2325 3 20 3Z" fill="#DFF1FC"/>
</svg>
