<svg width="42" height="45" viewBox="0 0 42 45" fill="none" xmlns="http://www.w3.org/2000/svg">
<path d="M7 0C5.14348 0 3.36301 0.790177 2.05025 2.1967C0.737498 3.60322 0 5.51088 0 7.5V37.5C0 39.4891 0.737498 41.3968 2.05025 42.8033C3.36301 44.2098 5.14348 45 7 45H35C36.8565 45 38.637 44.2098 39.9497 42.8033C41.2625 41.3968 42 39.4891 42 37.5V7.5C42 5.51088 41.2625 3.60322 39.9497 2.1967C38.637 0.790177 36.8565 0 35 0H7ZM24.1127 32.6375C25.7927 34.0875 27.468 34.8 29.1433 34.7825C30.17 34.7825 30.9587 34.5825 31.5047 34.1775C31.7596 34.0002 31.967 33.7548 32.1066 33.4655C32.2461 33.1761 32.3129 32.8529 32.3003 32.5275C32.3037 32.1726 32.2344 31.8213 32.0974 31.4982C31.9603 31.1751 31.7588 30.8881 31.507 30.6575C30.9587 30.145 29.9227 29.6325 28.399 29.1175C26.5697 28.55 25.1557 27.8175 24.164 26.9175C23.1887 26.0175 22.694 24.7625 22.6753 23.15C22.6753 21.6275 23.2913 20.355 24.5233 19.3275C25.7227 18.3025 27.2533 17.7875 29.12 17.7875C31.7193 17.7875 33.8077 18.465 35.3803 19.8225L33.5837 22.82C32.9368 22.2809 32.1946 21.888 31.402 21.665C30.6897 21.4097 29.9456 21.2707 29.1947 21.2525C28.308 21.2525 27.5963 21.4275 27.0643 21.775C26.5347 22.125 26.271 22.5825 26.271 23.15C26.271 23.775 26.5953 24.305 27.244 24.745C27.8973 25.1675 29.008 25.635 30.5807 26.1475C32.48 26.7525 33.8333 27.56 34.636 28.5675C35.441 29.575 35.8423 30.86 35.8423 32.4175C35.8423 34.0125 35.2707 35.3875 34.1227 36.5425C32.9933 37.68 31.3507 38.275 29.1947 38.33C26.3713 38.33 24.01 37.4225 22.1107 35.6075L24.1127 32.6375ZM11.2093 34.2325C11.7577 34.6 12.4157 34.7825 13.1857 34.7825C13.9907 34.7825 14.6557 34.535 15.1877 34.04C15.7173 33.5275 15.9833 32.6375 15.9833 31.3725V18.1175H19.4483V32.0875C19.397 34.25 18.816 35.81 17.703 36.7625C17.0957 37.3158 16.3877 37.7278 15.624 37.9725C14.9166 38.2034 14.1818 38.3238 13.4423 38.33C12.159 38.33 11.0203 38.0925 10.0287 37.615C8.967 37.1025 8.078 36.195 7.35933 34.8925L9.772 32.775C10.2153 33.4175 10.696 33.9025 11.2093 34.2325Z" fill="#DFF1FC"/>
</svg>
