<svg width="30" height="30" viewBox="0 0 30 30" fill="none" xmlns="http://www.w3.org/2000/svg">
<path d="M26.6667 0C27.5507 0 28.3986 0.351189 29.0237 0.976311C29.6488 1.60143 30 2.44928 30 3.33333V26.6667C30 27.5507 29.6488 28.3986 29.0237 29.0237C28.3986 29.6488 27.5507 30 26.6667 30H3.33333C2.44928 30 1.60143 29.6488 0.976311 29.0237C0.351189 28.3986 0 27.5507 0 26.6667V3.33333C0 2.44928 0.351189 1.60143 0.976311 0.976311C1.60143 0.351189 2.44928 0 3.33333 0H26.6667ZM23.8333 25.8333C24.9379 25.8333 25.8333 24.9379 25.8333 23.8333V17C25.8333 15.559 25.2609 14.177 24.2419 13.1581C23.223 12.1391 21.841 11.5667 20.4 11.5667C19.4222 11.5667 18.3331 11.9796 17.4892 12.6629C17.1694 12.9219 16.5333 12.703 16.5333 12.2914C16.5333 12.0661 16.3506 11.8833 16.1252 11.8833H13.8833C12.7788 11.8833 11.8833 12.7788 11.8833 13.8833V23.8333C11.8833 24.9379 12.7788 25.8333 13.8833 25.8333H14.5333C15.6379 25.8333 16.5333 24.9379 16.5333 23.8333V17.6167C16.5333 16.3333 17.5667 15.2833 18.85 15.2833C19.4688 15.2833 20.0623 15.5292 20.4999 15.9668C20.9375 16.4043 21.1833 16.9978 21.1833 17.6167V23.8333C21.1833 24.9379 22.0788 25.8333 23.1833 25.8333H23.8333ZM6.46667 9.26667C7.20927 9.26667 7.92146 8.97167 8.44657 8.44657C8.97167 7.92146 9.26667 7.20927 9.26667 6.46667C9.26667 4.91667 8.01667 3.65 6.46667 3.65C5.71964 3.65 5.00321 3.94675 4.47498 4.47498C3.94675 5.00321 3.65 5.71964 3.65 6.46667C3.65 8.01667 4.91667 9.26667 6.46667 9.26667ZM6.78333 25.8333C7.8879 25.8333 8.78333 24.9379 8.78333 23.8333V13.8833C8.78333 12.7788 7.8879 11.8833 6.78333 11.8833H6.16667C5.0621 11.8833 4.16667 12.7788 4.16667 13.8833V23.8333C4.16667 24.9379 5.0621 25.8333 6.16667 25.8333H6.78333Z" fill="#DFF1FC"/>
</svg>
