<svg width="20" height="20" viewBox="0 0 20 20" fill="none" xmlns="http://www.w3.org/2000/svg">
<path d="M9.87256 19.0981C11.0545 19.0981 12.2248 18.8653 13.3167 18.413C14.4086 17.9607 15.4008 17.2978 16.2365 16.462C17.0722 15.6263 17.7352 14.6342 18.1875 13.5422C18.6398 12.4503 18.8726 11.28 18.8726 10.0981C18.8726 8.91618 18.6398 7.74586 18.1875 6.65392C17.7352 5.56199 17.0722 4.56984 16.2365 3.73411C15.4008 2.89839 14.4086 2.23545 13.3167 1.78316C12.2248 1.33087 11.0545 1.09808 9.87256 1.09808M9.87256 19.0981C8.69066 19.0981 7.52034 18.8653 6.42841 18.413C5.33648 17.9607 4.34432 17.2978 3.5086 16.462C2.67287 15.6263 2.00994 14.6342 1.55764 13.5422C1.10535 12.4503 0.872559 11.28 0.872559 10.0981C0.872559 8.91618 1.10535 7.74586 1.55764 6.65392C2.00994 5.56199 2.67287 4.56984 3.5086 3.73411C4.34432 2.89839 5.33648 2.23545 6.42841 1.78316C7.52034 1.33087 8.69066 1.09808 9.87256 1.09808M9.87256 19.0981C12.6336 19.0981 13.8136 13.9351 13.8136 10.0981C13.8136 6.26108 12.6336 1.09808 9.87256 1.09808M9.87256 19.0981C7.11156 19.0981 5.93156 13.9351 5.93156 10.0981C5.93156 6.26108 7.11156 1.09808 9.87256 1.09808M1.37256 7.09808L18.3726 7.09808M1.37256 13.0981L18.3726 13.0981" stroke="url(#paint0_linear_62_452)" stroke-linecap="round" stroke-linejoin="round"/>
<defs>
<linearGradient id="paint0_linear_62_452" x1="0.919837" y1="19.0981" x2="18.8857" y2="19.0981" gradientUnits="userSpaceOnUse">
<stop stop-color="#EE59B5"/>
<stop offset="1" stop-color="#FFB400"/>
</linearGradient>
</defs>
</svg>
