<svg width="45" height="45" viewBox="0 0 45 45" fill="none" xmlns="http://www.w3.org/2000/svg">
<g clip-path="url(#clip0_62_293)">
<path d="M21.6995 7.78957e-05C21.475 -0.00412267 21.2505 0.000255521 21.0263 0.0132029C20.799 0.0359315 20.5715 0.0565574 20.3438 0.0750779C13.9557 0.650703 7.96883 4.09883 4.17758 9.39758C2.0809 12.3067 0.717878 15.6792 0.204453 19.2282C0.0244531 20.4638 0.00195312 20.8295 0.00195312 22.5038C0.00195312 24.1782 0.0244531 24.5457 0.204453 25.7813C1.42695 34.2301 7.44195 41.3288 15.5963 43.9594C17.057 44.4282 18.5963 44.7507 20.3476 44.9438C21.0282 45.0188 23.9757 45.0188 24.6582 44.9438C27.6788 44.6101 30.2401 43.8619 32.7638 42.5738C33.152 42.3751 33.227 42.3226 33.1745 42.2776C33.137 42.2532 31.487 40.0407 29.5088 37.3651L25.9107 32.5051L21.4032 25.8338C19.9036 23.6017 18.3898 21.3792 16.862 19.1663C16.8451 19.1626 16.8282 22.127 16.8188 25.7476C16.8057 32.0851 16.8001 32.3382 16.7213 32.4882C16.6449 32.664 16.5078 32.8064 16.3351 32.8895C16.1945 32.9588 16.0726 32.972 15.407 32.972H14.6438L14.4413 32.8445C14.3162 32.766 14.2145 32.6552 14.147 32.5238L14.0532 32.3251L14.0645 23.507L14.0776 14.6851L14.2126 14.5126C14.3048 14.4048 14.4152 14.314 14.5388 14.2445C14.7188 14.1563 14.7901 14.1488 15.5513 14.1488C16.4476 14.1488 16.5976 14.1826 16.8301 14.4376C18.6547 17.153 20.4641 19.8787 22.2582 22.6145C25.2158 27.0969 28.1752 31.5781 31.1363 36.0582L34.6988 41.4563L34.8788 41.3382C36.594 40.1985 38.149 38.8346 39.5026 37.2826C42.3372 34.038 44.1756 30.0446 44.7976 25.7813C44.9776 24.5438 45.0001 24.1801 45.0001 22.5038C45.0001 20.8295 44.9776 20.4638 44.7976 19.2282C43.5751 10.7795 37.562 3.6807 29.4076 1.05008C27.8829 0.565359 26.313 0.236797 24.722 0.0694529C23.7152 0.0218022 22.7074 -0.00132963 21.6995 7.78957e-05ZM29.327 13.532C29.9776 13.532 30.092 13.5413 30.2382 13.6201C30.3429 13.673 30.4362 13.7461 30.5124 13.8352C30.5887 13.9244 30.6465 14.0278 30.6826 14.1395C30.7163 14.252 30.7257 16.6988 30.7163 22.2095L30.7051 30.1182L29.3101 27.9807L27.9113 25.8432V20.0945C27.9113 16.3782 27.9301 14.2876 27.9545 14.1882C27.9859 14.0709 28.0408 13.9613 28.1159 13.8659C28.191 13.7704 28.2847 13.6913 28.3913 13.6332C28.5713 13.5395 28.6351 13.532 29.3288 13.532H29.327Z" fill="#DFF1FC"/>
</g>
<defs>
<clipPath id="clip0_62_293">
<rect width="45" height="45" fill="white"/>
</clipPath>
</defs>
</svg>
