<svg width="46" height="34" viewBox="0 0 46 34" fill="none" xmlns="http://www.w3.org/2000/svg">
<path d="M0.5 32.5949V0.529648C0.5 0.31142 0.593485 0.186969 0.811714 0.186969C1.34136 0.186969 1.84005 0.186969 2.55666 0.15571C3.30454 0.124451 4.08368 0.124451 4.92504 0.0934847C5.76641 0.0622257 6.66999 0.0622244 7.6361 0.0309654C8.60192 -1.40827e-06 9.53676 0 10.4716 0C13.027 0 15.1458 0.311421 16.8911 0.965814C18.4554 1.49708 19.8817 2.36998 21.0666 3.52116C22.0707 4.5286 22.8466 5.74011 23.3415 7.07358C23.809 8.38237 24.0582 9.72241 24.0582 11.1247C24.0582 13.8045 23.435 16.0169 22.1885 17.7621C20.9419 19.5071 19.197 20.8158 17.1715 21.5637C15.0524 22.3429 12.7152 22.6233 10.1602 22.6233C9.41231 22.6233 8.91363 22.6233 8.60192 22.592C8.29049 22.5608 7.85404 22.5608 7.26216 22.5608V32.5637C7.29313 32.7819 7.13742 32.9689 6.91919 33.0001H0.87394C0.624744 33.0001 0.5 32.8754 0.5 32.5949ZM7.29313 6.20096V16.6712C7.72958 16.7025 8.13449 16.7338 8.50843 16.7338H10.1602C11.3755 16.7338 12.5908 16.5468 13.7436 16.1729C14.7409 15.8924 15.6133 15.3002 16.2989 14.5211C16.9533 13.7423 17.265 12.6827 17.265 11.3117C17.2943 10.3378 17.0456 9.37577 16.5481 8.53808C16.0185 7.72797 15.2706 7.10484 14.367 6.76187C13.2139 6.29444 11.9674 6.10748 10.6898 6.13873C9.87974 6.13873 9.16282 6.13873 8.57095 6.16999C7.94752 6.13873 7.51136 6.16999 7.29313 6.20096ZM43.503 14.7706C42.5681 14.2719 41.5711 13.9292 40.5115 13.711C39.3584 13.4618 38.2056 13.3058 37.0213 13.3058C36.3981 13.2748 35.7438 13.3683 35.1516 13.524C34.7467 13.6175 34.4037 13.8357 34.1858 14.1472C34.0298 14.3966 33.9363 14.7081 33.9363 14.9885C33.9363 15.269 34.061 15.5494 34.248 15.7989C34.5285 16.1416 34.9024 16.4221 35.3076 16.6403C36.03 17.0145 36.7682 17.3576 37.52 17.6686C39.2027 18.2295 40.8232 19.0084 42.3189 19.9432C43.3473 20.5976 44.1886 21.4702 44.7805 22.5298C45.2792 23.5269 45.5284 24.6175 45.4974 25.7393C45.5284 27.2041 45.0922 28.6686 44.2821 29.8839C43.4129 31.1278 42.2001 32.0915 40.7919 32.6571C39.2649 33.3115 37.3952 33.6545 35.1516 33.6545C33.7183 33.6545 32.3161 33.5298 30.9138 33.2493C29.8148 33.0595 28.7459 32.7242 27.7353 32.2522C27.5171 32.1275 27.3614 31.9093 27.3924 31.6601V26.238C27.3924 26.1445 27.4236 26.0197 27.5171 25.9575C27.6106 25.8953 27.7041 25.9262 27.7975 25.9888C29.0128 26.7054 30.2904 27.2041 31.6617 27.5155C32.8457 27.8272 34.0923 27.9829 35.3386 27.9829C36.5229 27.9829 37.3643 27.8272 37.9252 27.5467C38.4235 27.3285 38.7665 26.7989 38.7665 26.238C38.7665 25.8018 38.517 25.3966 38.0186 24.9914C37.52 24.5865 36.4916 24.1191 34.9646 23.5269C33.3983 22.975 31.9108 22.2207 30.5399 21.2833C29.5634 20.5873 28.7543 19.6824 28.1715 18.6344C27.6728 17.6374 27.4236 16.5468 27.4549 15.4559C27.4549 14.1162 27.8288 12.8384 28.5142 11.6856C29.2933 10.439 30.4464 9.44196 31.7861 8.81853C33.2509 8.07065 35.0894 7.72797 37.3017 7.72797C38.5796 7.72797 39.8883 7.82146 41.1659 8.00843C42.1007 8.13317 43.0043 8.38237 43.8457 8.72505C43.9704 8.75631 44.0952 8.88105 44.1574 9.0055C44.1886 9.13025 44.2196 9.25499 44.2196 9.37944V14.4589C44.2196 14.5836 44.1574 14.7081 44.0639 14.7706C43.7834 14.8328 43.6277 14.8328 43.503 14.7706Z" fill="#DFF1FC"/>
</svg>
