<svg width="51" height="45" viewBox="0 0 51 45" fill="none" xmlns="http://www.w3.org/2000/svg">
<path d="M25.1507 18.0782C27.5605 18.0782 29.5257 20.0434 29.5257 22.5C29.5257 24.8396 27.5605 26.8283 25.1507 26.8283C22.7409 26.8283 20.7756 24.8396 20.7756 22.5C20.7756 20.0434 22.7409 18.0782 25.1507 18.0782ZM14.3183 41.2168C15.7923 42.1058 19.0209 40.7489 22.7409 37.2395C21.5243 35.8591 20.3311 34.3618 19.2081 32.7942C17.3227 32.6138 15.4484 32.3327 13.5931 31.952C12.3999 36.9587 12.8444 40.3979 14.3183 41.2168ZM15.9795 27.7875L15.301 26.5943C15.0436 27.2728 14.7863 27.9513 14.6225 28.6064C15.2542 28.7467 15.9561 28.8637 16.6813 28.9807L15.9795 27.7875ZM31.2804 26.0094L33.1755 22.5L31.2804 18.9906C30.5786 17.7506 29.8299 16.651 29.1514 15.5514C27.888 15.4812 26.5544 15.4812 25.1507 15.4812C23.7469 15.4812 22.4134 15.4812 21.15 15.5514C20.4715 16.651 19.7228 17.7506 19.0209 18.9906L17.1259 22.5L19.0209 26.0094C19.7228 27.2494 20.4715 28.349 21.15 29.4486C22.4134 29.5188 23.7469 29.5188 25.1507 29.5188C26.5544 29.5188 27.888 29.5188 29.1514 29.4486C29.8299 28.349 30.5786 27.2494 31.2804 26.0094ZM25.1507 10.2873C24.7062 10.802 24.2382 11.3401 23.7703 11.9718H26.5311C26.0631 11.3401 25.5952 10.802 25.1507 10.2873ZM25.1507 34.7127C25.5952 34.198 26.0631 33.6599 26.5311 33.0282H23.7703C24.2382 33.6599 24.7062 34.198 25.1507 34.7127ZM35.9596 3.78321C34.5091 2.89416 31.2804 4.25113 27.5605 7.76053C28.7771 9.14089 29.9703 10.6382 31.0933 12.2058C33.0117 12.3929 34.9068 12.6737 36.7083 13.048C37.9015 8.04128 37.457 4.60207 35.9596 3.78321ZM34.3219 17.2125L35.0004 18.4057C35.2578 17.7272 35.5151 17.0487 35.6789 16.3936C35.0472 16.2533 34.3453 16.1363 33.62 16.0193L34.3219 17.2125ZM37.7143 0.718334C41.1535 2.6836 41.5279 7.85411 40.0773 13.8903C46.0199 15.645 50.3014 18.5461 50.3014 22.5C50.3014 26.4539 46.0199 29.355 40.0773 31.1097C41.5279 37.1459 41.1535 42.3164 37.7143 44.2817C34.2985 46.2469 29.6427 44.0009 25.1507 39.7194C20.6587 44.0009 16.0029 46.2469 12.5636 44.2817C9.14783 42.3164 8.7735 37.1459 10.224 31.1097C4.28147 29.355 0 26.4539 0 22.5C0 18.5461 4.28147 15.645 10.224 13.8903C8.7735 7.85411 9.14783 2.6836 12.5636 0.718334C16.0029 -1.24693 20.6587 0.999086 25.1507 5.28055C29.6427 0.999086 34.2985 -1.24693 37.7143 0.718334ZM37.0359 22.5C37.8313 24.2547 38.5332 26.0094 39.1181 27.7875C44.0312 26.3135 46.792 24.2079 46.792 22.5C46.792 20.7921 44.0312 18.6865 39.1181 17.2125C38.5332 18.9906 37.8313 20.7453 37.0359 22.5ZM13.2655 22.5C12.4701 20.7453 11.7682 18.9906 11.1833 17.2125C6.27013 18.6865 3.5094 20.7921 3.5094 22.5C3.5094 24.2079 6.27013 26.3135 11.1833 27.7875C11.7682 26.0094 12.4701 24.2547 13.2655 22.5ZM34.3219 27.7875L33.62 28.9807C34.3453 28.8637 35.0472 28.7467 35.6789 28.6064C35.5151 27.9513 35.2578 27.2728 35.0004 26.5943L34.3219 27.7875ZM27.5605 37.2395C31.2804 40.7489 34.5091 42.1058 35.9596 41.2168C37.457 40.3979 37.9015 36.9587 36.7083 31.952C34.9068 32.3263 33.0117 32.6071 31.0933 32.7942C29.9703 34.3618 28.7771 35.8591 27.5605 37.2395ZM15.9795 17.2125L16.6813 16.0193C15.9561 16.1363 15.2542 16.2533 14.6225 16.3936C14.7863 17.0487 15.0436 17.7272 15.301 18.4057L15.9795 17.2125ZM22.7409 7.76053C19.0209 4.25113 15.7923 2.89416 14.3183 3.78321C12.8444 4.60207 12.3999 8.04128 13.5931 13.048C15.4484 12.6673 17.3227 12.3862 19.2081 12.2058C20.3311 10.6382 21.5243 9.14089 22.7409 7.76053Z" fill="#DFF1FC"/>
</svg>
