<svg width="51" height="50" viewBox="0 0 51 50" fill="none" xmlns="http://www.w3.org/2000/svg">
<g clip-path="url(#clip0_1310_6400)">
<path d="M15.0833 22.9168V39.5835C15.0833 40.136 14.8638 40.6659 14.4731 41.0566C14.0824 41.4473 13.5525 41.6668 13 41.6668H8.83333C8.2808 41.6668 7.75089 41.4473 7.36019 41.0566C6.96949 40.6659 6.75 40.136 6.75 39.5835V25.0002C6.75 24.4476 6.96949 23.9177 7.36019 23.527C7.75089 23.1363 8.2808 22.9168 8.83333 22.9168H15.0833ZM15.0833 22.9168C17.2935 22.9168 19.4131 22.0389 20.9759 20.4761C22.5387 18.9133 23.4167 16.7936 23.4167 14.5835V12.5002C23.4167 11.3951 23.8557 10.3353 24.6371 9.55388C25.4185 8.77248 26.4783 8.3335 27.5833 8.3335C28.6884 8.3335 29.7482 8.77248 30.5296 9.55388C31.311 10.3353 31.75 11.3951 31.75 12.5002V22.9168H38C39.1051 22.9168 40.1649 23.3558 40.9463 24.1372C41.7277 24.9186 42.1667 25.9784 42.1667 27.0835L40.0833 37.5002C39.7837 38.7782 39.2154 39.8757 38.4639 40.6272C37.7124 41.3787 36.8184 41.7435 35.9167 41.6668H21.3333C19.6757 41.6668 18.086 41.0084 16.9139 39.8363C15.7418 38.6641 15.0833 37.0744 15.0833 35.4168" stroke="white" stroke-width="4.16667" stroke-linecap="round" stroke-linejoin="round"/>
</g>
<defs>
<clipPath id="clip0_1310_6400">
<rect width="50" height="50" fill="white" transform="translate(0.5)"/>
</clipPath>
</defs>
</svg>
